<svg height="512" viewBox="0 0 60 60" width="512" xmlns="http://www.w3.org/2000/svg"><g id="051---Running" fill="none"><g id="Icons" transform="translate(3 1)"><path id="Shape" d="m42 44v9h-8.96c-1.6252202-.0010997-3.1804721-.6614502-4.31-1.83l-26.52-27.42c.2599302-.3249357.55506427-.6200698.88-.88l7.24-5.87 8.94 6.26c.6778565.4730378 1.520372.6466032 2.33.48l6.05-1.25c1.3717114-.2882521 2.7597433.4140754 3.34 1.69l8.48 18.65c.32354.7141936 1.0359427 1.1721667 1.82 1.17z" fill="#00bcd4"/><path id="Shape" d="m56 57c0 .5522847-.4477153 1-1 1h-24.46c-1.6252202-.0010997-3.1804721-.6614502-4.31-1.83l-23.67-24.46c-2.11319044-2.1828881-2.26344304-5.6000614-.35-7.96l26.52 27.42c1.13 1.17 11.65 1.83 13.27 1.83h13.82c.192141 1.324099.2524363 2.663995.18 4z" fill="#283593"/><path id="Shape" d="m53 57c0 .5522847-.4477153 1-1 1h-21.46c-1.6252202-.0010997-3.1804721-.6614502-4.31-1.83l-23.67-24.46c-2.11319044-2.1828881-2.26344304-5.6000614-.35-7.96 28.445 29.41 26.519 27.45 26.67 27.54 1.748 1.11 11.177 1.71 13.12 1.71h10.82c.192141 1.324099.2524363 2.663995.18 4z" fill="#3f51b5"/><path id="Shape" d="m35.14 52.52c-.92-.1-1.83-.21-2.66-.33.84.12 1.75.23 2.66.33z" fill="#3f51b5"/><path id="Shape" d="m52.91 3.48c-24.851 19.159-24.49 18.952-24.59 18.95-.4-.009.113-.1-6.72 1.31-.6349558.1310074-1.2953532.0502141-1.88-.23-.7537871-.3949805-1.4643011-.8675394-2.12-1.41-.54-1.3-1.3-3.7-.6-5.1.5465417-1.1071741.5128809-2.4124672-.09-3.49l14.52-13c.3653212-.32811554.838961-.50973684 1.33-.51h18.8c.8271838-.00198218 1.5702358.50546272 1.8694046 1.27665339s.0927156 1.6469781-.5194046 2.20334661z" fill="#dfc49c"/><path id="Shape" d="m50.31 2.48-27.31 20.52-2.1.79c-.4089058-.0072824-.8114153-.1027932-1.18-.28-.7520208-.3979553-1.4622405-.8703184-2.12-1.41-.54-1.3-1.3-3.7-.6-5.1.5465417-1.1071741.5128809-2.4124672-.09-3.49l14.52-13c.3653212-.32811554.838961-.50973684 1.33-.51h17.93c.4854165.81063905.325869 1.85189664-.38 2.48z" fill="#ffe0b2"/><path id="Shape" d="m55.82 53h-13.82v-9.0000005l3 .0000005c5.3050431-.0016137 9.8554469 3.7833802 10.82 9z" fill="#0377bc"/><g fill="#02a9f4"><path id="Shape" d="m52.82 53h-10.82v-9.0000005c5.3050431-.0016132 9.8554469 3.7833807 10.82 9.0000005z"/><path id="Shape" d="m17.6 22.1c-.54-1.3-1.3-3.7-.6-5.1.6098461-1.276792.4817024-2.7835316-.335-3.939-.1547221-.2475488-.4104414-.4145696-.6993025-.4567434-.2888611-.0421737-.5816582.0447637-.8006975.2377434l-4.835 4.158z"/><path id="Shape" d="m17.6 22.1c-.54-1.3-1.3-3.7-.6-5.1.6098461-1.276792.4817024-2.7835316-.335-3.939-.1547221-.2475488-.4104414-.4145696-.6993025-.4567434-.2888611-.0421737-.5816582.0447637-.8006975.2377434l-4.835 4.158z"/></g><path id="Shape" d="m41.29 44.0000077-3-.0000077c-.7840573.0021667-1.49646-.4558064-1.82-1.17l-8.48-18.65c-.2919864-.6452344-.8067876-1.1635859-1.45-1.46l1.11-.23c1.3717114-.2882521 2.7597433.4140754 3.34 1.69l8.48 18.65c.32354.7141936 1.0359427 1.1721667 1.82 1.1700077z" fill="#00838f"/></g><g id="Outline" fill="#000"><path id="Shape" d="m48 44h-3.712c-.3925603.0001056-.7488726-.2294831-.911-.587l-1.096-2.413h.719c.5522847 0 1-.4477153 1-1s-.4477153-1-1-1h-1.629l-.909-2h.384c.5522847 0 1-.4477153 1-1s-.4477153-1-1-1h-1.293l-.909-2c.3572656.0085744.691967-.1741015.8780254-.4792154.1860585-.3051139.1952072-.6863117.024-1-.1712071-.3136883-.4967598-.5122102-.8540254-.5207846h-.957l-.935-2.053c.4788759-.1307622.7871228-.5956612.7211681-1.0876681-.0659547-.492007-.4857601-.8593089-.9821681-.8593319h-.622l-1.017-2.232c-.3164437-.696467-.827228-1.2867683-1.471-1.7l23.155-17.848c.9180433-.83443019 1.2277792-2.14786253.7792851-3.30455192-.4484941-1.15668938-1.5626922-1.91800636-2.8032851-1.91544808h-18.8c-.7381948-.00036599-1.4504851.27208506-2 .765l-13.7 12.269c-.7468759-.6029226-1.8189144-.5822578-2.542.049-6.181 5.309-3.047 2.71-12.06 10.015-1.52147764 1.237463-2.45462581 3.0559913-2.57265323 5.0136119s.58987275 3.8750898 1.95165323 5.2863881l23.676 24.47c1.3209954 1.359257 3.1345865 2.12796 5.03 2.132h24.457c1.1045695 0 2-.8954305 2-2v-2c-.0170366-6.6203474-5.3796526-11.9829634-12-12zm9.539 9h-11.539v-7h2c4.3651452.0059234 8.223969 2.8376423 9.539 7zm-22.439-50.744c.407-.367-1.1-.256 19.46-.256.3991481.00071843.7601978.23712233.9204567.60268603.160259.3655637.0894748.79127866-.1804567 1.08531397l-24.33 18.757c-.5.037.152-.1-6.572 1.313-.5393264.1115727-1.100793-.0041936-1.552-.32l-1.411-.988c-.681-1.734-.9-3.288-.539-4.006.5772424-1.1381236.6530045-2.4655911.209-3.662zm-16.294 12.316c.6401533.863057.7553466 2.0076948.3 2.981-.4059018.9730986-.5002293 2.0480823-.27 3.077l-3.88-2.716zm-5.429 4.68 8.323 5.825c.9024201.6280829 2.0226258.8593511 3.1.64 6.571-1.356 6.154-1.3 6.517-1.29.7650687.0186813 1.4514872.4748676 1.765 1.173l.638 1.4h-4.72c-.5522847 0-1 .4477153-1 1s.4477153 1 1 1h5.629l.909 2h-4.384c-.5522847 0-1 .4477153-1 1s.4477153 1 1 1h5.293l.909 2h-4.048c-.5522847 0-1 .4477153-1 1s.4477153 1 1 1h4.958l.909 2h-3.714c-.5522847 0-1 .4477153-1 1s.4477153 1 1 1h4.623l1.473 3.24c.4454337.9742755 1.3765856 1.6370971 2.443 1.739v7.021h-7.96c-1.3536286-.0034945-2.6485028-.5533923-3.591-1.525-27.749-28.71-25.91-26.675-25.731-26.825zm44.623 38.748h-24.457c-1.3536983-.0030755-2.6489923-.5517639-3.593-1.522l-23.676-24.466c-1.46625965-1.5047179-1.82669302-3.7694409-.9-5.655l25.637 26.507c1.3192948 1.3616287 3.1330686 2.1320047 5.029 2.136h21.909c.06805.9984802.0850721 1.9997838.051 3z"/><path id="Shape" d="m1 9h15c.5522847 0 1-.44771525 1-1s-.4477153-1-1-1h-15c-.55228475 0-1 .44771525-1 1s.44771525 1 1 1z"/><path id="Shape" d="m14 48h-10c-.55228475 0-1 .4477153-1 1s.44771525 1 1 1h10c.5522847 0 1-.4477153 1-1s-.4477153-1-1-1z"/><path id="Shape" d="m24 4c.5522847 0 1-.44771525 1-1s-.4477153-1-1-1h-15c-.55228475 0-1 .44771525-1 1s.44771525 1 1 1z"/><path id="Shape" d="m20 55h-13c-.55228475 0-1 .4477153-1 1s.44771525 1 1 1h13c.5522847 0 1-.4477153 1-1s-.4477153-1-1-1z"/><path id="Shape" d="m1 43h6c.55228475 0 1-.4477153 1-1s-.44771525-1-1-1h-6c-.55228475 0-1 .4477153-1 1s.44771525 1 1 1z"/></g></g></svg>